<svg height="60" viewBox="0 0 60 60" width="60" xmlns="http://www.w3.org/2000/svg" xmlns:xlink="http://www.w3.org/1999/xlink"><defs><linearGradient id="a" x1="81.70835%" x2="21.757914%" y1="22.787797%" y2="81.560135%"><stop offset="0" stop-color="#635bff"/><stop offset="1" stop-color="#00d4ff"/></linearGradient><path id="b" d="m30.26702 50.328125c11.1914063 0 20.4101563-9.2382812 20.4101563-20.4296875s-9.2382813-20.41015625-20.4101563-20.41015625c-11.1914063 0-20.41015625 9.21874995-20.41015625 20.41015625s9.21874995 20.4296875 20.41015625 20.4296875zm0-4.5898438c-8.7695313 0-15.8007813-7.0703124-15.8007813-15.8398437s7.0117188-15.8203125 15.8007813-15.8203125c8.7695313 0 15.8203125 7.0507812 15.8398438 15.8203125 0 8.7695313-7.0703125 15.8398437-15.8398438 15.8398437zm-.0195313-5.0195312c.5078125 0 .859375-.3515625.859375-.8789062v-1.25c3.3007813-.2929688 5.6835938-2.1484376 5.6835938-5.1171876 0-2.6757812-1.6992187-4.1992187-5.1171875-4.84375l-.5664063-.1171874v-4.4140626c1.1328126.1953126 1.9335938.859375 2.2851563 1.8945313.3320313.6835937.8203125 1.0546875 1.5625 1.0546875.8789063 0 1.4648438-.546875 1.4648438-1.3671875 0-.234375-.0585938-.46875-.1171875-.7226563-.5273438-1.9335937-2.4804688-3.3789062-5.1953126-3.6523437v-1.2695313c0-.5273437-.3515625-.8789062-.859375-.8789062-.4882812 0-.859375.3515625-.859375.8789062v1.2695313c-3.1640625.2929687-5.4101562 2.1875-5.4101562 4.9804687 0 2.5585938 1.6992187 4.0625 4.9414062 4.7851563l.46875.1171875v4.6484375c-1.4257812-.2148437-2.265625-.9570313-2.5585937-1.9921875-.3125-.7226562-.8007813-1.1132812-1.5429688-1.1132812-.9375 0-1.5039062.6054687-1.5039062 1.4648437 0 .234375.0390625.46875.1367187.7421875.546875 1.9140625 2.5585938 3.4179688 5.46875 3.6328125v1.2695313c0 .5273437.3710938.8789062.859375.8789062zm-.859375-12.6367188-.1171875-.0390624c-1.4453125-.4101563-2.109375-1.0351563-2.109375-1.9921876 0-.9960937.859375-1.7773437 2.2265625-1.9921874zm1.71875 7.7539063v-4.2382813l.3320313.078125c1.5625.4101563 2.1484375 1.0351563 2.1484375 2.0507813 0 1.1328125-.8398437 1.9335937-2.4804688 2.109375z"/><filter id="c" height="144.7%" width="144.7%" x="-22.4%" y="-22.3%"><feMorphology in="SourceAlpha" operator="dilate" radius="0.125" result="shadowSpreadOuter1"/><feOffset dx="2" dy="2" in="shadowSpreadOuter1" result="shadowOffsetOuter1"/><feGaussianBlur in="shadowOffsetOuter1" result="shadowBlurOuter1" stdDeviation="2"/><feComposite in="shadowBlurOuter1" in2="SourceAlpha" operator="out" result="shadowBlurOuter1"/><feColorMatrix in="shadowBlurOuter1" result="shadowMatrixOuter1" type="matrix" values="0 0 0 0 0.780392157   0 0 0 0 0.780392157   0 0 0 0 0.8  0 0 0 1 0"/><feMorphology in="SourceAlpha" operator="dilate" radius="0.125" result="shadowSpreadOuter2"/><feOffset dx="-2" dy="-2" in="shadowSpreadOuter2" result="shadowOffsetOuter2"/><feGaussianBlur in="shadowOffsetOuter2" result="shadowBlurOuter2" stdDeviation="2"/><feComposite in="shadowBlurOuter2" in2="SourceAlpha" operator="out" result="shadowBlurOuter2"/><feColorMatrix in="shadowBlurOuter2" result="shadowMatrixOuter2" type="matrix" values="0 0 0 0 1   0 0 0 0 1   0 0 0 0 1  0 0 0 1 0"/><feMerge><feMergeNode in="shadowMatrixOuter1"/><feMergeNode in="shadowMatrixOuter2"/></feMerge></filter><filter id="d" height="139.8%" width="139.8%" x="-19.9%" y="-19.9%"><feGaussianBlur in="SourceAlpha" result="shadowBlurInner1" stdDeviation="1"/><feOffset dx="0" dy="2" in="shadowBlurInner1" result="shadowOffsetInner1"/><feComposite in="shadowOffsetInner1" in2="SourceAlpha" k2="-1" k3="1" operator="arithmetic" result="shadowInnerInner1"/><feColorMatrix in="shadowInnerInner1" type="matrix" values="0 0 0 0 0   0 0 0 0 0   0 0 0 0 0  0 0 0 0.16 0"/></filter></defs><g fill="none" fill-rule="evenodd"><g fill-rule="nonzero"><use fill="#000" filter="url(#c)" xlink:href="#b"/><use fill="#000" xlink:href="#b"/><use fill="url(#a)" xlink:href="#b"/><use fill="#000" filter="url(#d)" xlink:href="#b"/><use stroke="#f2f2f7" stroke-width=".25" xlink:href="#b"/></g><rect height="59" rx="12" stroke="#000" stroke-opacity=".16" width="59" x=".5" y=".5"/></g></svg>