<svg height="48" viewBox="0 0 94 48" width="94" xmlns="http://www.w3.org/2000/svg" xmlns:xlink="http://www.w3.org/1999/xlink"><defs><linearGradient id="a"><stop offset="0" stop-color="#635bff"/><stop offset="1" stop-color="#00d4ff"/></linearGradient><linearGradient id="b" x1="81.70835%" x2="21.757914%" xlink:href="#a" y1="22.787797%" y2="81.560135%"/><path id="c" d="m26.4101562 44.8398438c11.1914063 0 20.4101563-9.2382813 20.4101563-20.4296876 0-11.1914062-9.2382813-20.4101562-20.4101563-20.4101562-11.1914062 0-20.4101562 9.21875-20.4101562 20.4101562 0 11.1914063 9.21875 20.4296876 20.4101562 20.4296876zm0-4.5898438c-8.7695312 0-15.8007812-7.0703125-15.8007812-15.8398438 0-8.7695312 7.0117188-15.82031245 15.8007812-15.82031245 8.7695313 0 15.8203126 7.05078125 15.8398438 15.82031245 0 8.7695313-7.0703125 15.8398438-15.8398438 15.8398438zm-.0195312-5.0195312c.5078125 0 .859375-.3515626.859375-.8789063v-1.25c3.3007812-.2929687 5.6835938-2.1484375 5.6835938-5.1171875 0-2.6757812-1.6992188-4.1992188-5.1171876-4.84375l-.5664062-.1171875v-4.4140625c1.1328125.1953125 1.9335938.859375 2.2851562 1.8945312.3320313.6835938.8203126 1.0546876 1.5625 1.0546876.8789063 0 1.4648438-.546875 1.4648438-1.3671876 0-.234375-.0585938-.46875-.1171875-.7226562-.5273437-1.9335938-2.4804687-3.3789062-5.1953125-3.6523438v-1.2695312c0-.5273438-.3515625-.8789062-.859375-.8789062-.4882812 0-.859375.3515624-.859375.8789062v1.2695312c-3.1640625.2929688-5.4101562 2.1875-5.4101562 4.9804688 0 2.5585938 1.6992187 4.0625 4.9414062 4.7851562l.46875.1171876v4.6484374c-1.4257812-.2148437-2.265625-.9570312-2.5585938-1.9921874-.3125-.7226563-.8007812-1.1132813-1.5429687-1.1132813-.9375 0-1.5039063.6054687-1.5039063 1.4648437 0 .234375.0390626.46875.1367188.7421876.546875 1.9140624 2.5585938 3.4179687 5.46875 3.6328124v1.2695313c0 .5273437.3710938.8789063.859375.8789063zm-.859375-12.6367188-.1171875-.0390625c-1.4453125-.4101563-2.109375-1.0351563-2.109375-1.9921875 0-.9960938.859375-1.7773438 2.2265625-1.9921875zm1.71875 7.7539062v-4.2382812l.3320312.078125c1.5625001.4101562 2.1484376 1.0351562 2.1484376 2.0507812 0 1.1328126-.8398438 1.9335938-2.4804688 2.109375z"/><filter id="d" height="144.7%" width="144.7%" x="-22.4%" y="-22.3%"><feMorphology in="SourceAlpha" operator="dilate" radius="0.125" result="shadowSpreadOuter1"/><feOffset dx="2" dy="2" in="shadowSpreadOuter1" result="shadowOffsetOuter1"/><feGaussianBlur in="shadowOffsetOuter1" result="shadowBlurOuter1" stdDeviation="2"/><feComposite in="shadowBlurOuter1" in2="SourceAlpha" operator="out" result="shadowBlurOuter1"/><feColorMatrix in="shadowBlurOuter1" result="shadowMatrixOuter1" type="matrix" values="0 0 0 0 0.780392157   0 0 0 0 0.780392157   0 0 0 0 0.8  0 0 0 1 0"/><feMorphology in="SourceAlpha" operator="dilate" radius="0.125" result="shadowSpreadOuter2"/><feOffset dx="-2" dy="-2" in="shadowSpreadOuter2" result="shadowOffsetOuter2"/><feGaussianBlur in="shadowOffsetOuter2" result="shadowBlurOuter2" stdDeviation="2"/><feComposite in="shadowBlurOuter2" in2="SourceAlpha" operator="out" result="shadowBlurOuter2"/><feColorMatrix in="shadowBlurOuter2" result="shadowMatrixOuter2" type="matrix" values="0 0 0 0 1   0 0 0 0 1   0 0 0 0 1  0 0 0 1 0"/><feMerge><feMergeNode in="shadowMatrixOuter1"/><feMergeNode in="shadowMatrixOuter2"/></feMerge></filter><filter id="e" height="139.8%" width="139.8%" x="-19.9%" y="-19.9%"><feGaussianBlur in="SourceAlpha" result="shadowBlurInner1" stdDeviation="1"/><feOffset dx="0" dy="2" in="shadowBlurInner1" result="shadowOffsetInner1"/><feComposite in="shadowOffsetInner1" in2="SourceAlpha" k2="-1" k3="1" operator="arithmetic" result="shadowInnerInner1"/><feColorMatrix in="shadowInnerInner1" type="matrix" values="0 0 0 0 0   0 0 0 0 0   0 0 0 0 0  0 0 0 0.16 0"/></filter><linearGradient id="f" x1="81.7387%" x2="-133.135574%" xlink:href="#a" y1="37.550949%" y2="78.498243%"/><path id="g" d="m62.0742188 33.4023438v-14.3671876h5.0507812v-2.5429687h-13.125v2.5429687h5.0625v14.3671876zm7.8164062-14.203125c.9140625 0 1.6171875-.7265626 1.6171875-1.59375 0-.890625-.703125-1.6054688-1.6171875-1.6054688s-1.6289062.7148438-1.6289062 1.6054688c0 .8671874.7148437 1.59375 1.6289062 1.59375zm1.453125 14.203125v-12.421875h-2.9179688v12.421875zm5.390625 4.1015624v-6.1992187h.0585938c.703125 1.453125 2.1210937 2.34375 3.890625 2.34375 3.1171874 0 5.109375-2.4609375 5.109375-6.4453125v-.0117188c0-4.0078124-1.9921876-6.46875-5.1445313-6.46875-1.78125 0-3.140625.9140626-3.8554687 2.4023438h-.0585938v-2.1445312h-2.9179688v16.5234374zm3.046875-6.3164062c-1.8046875 0-3.0703125-1.5585938-3.0703125-3.984375v-.0117188c0-2.4375 1.265625-4.0078124 3.0703125-4.0078124 1.8632812 0 3.0351562 1.5234374 3.0351562 4.0078124v.0117188c0 2.4492188-1.171875 3.984375-3.0351562 3.984375z"/><filter id="h" height="184.9%" width="157.4%" x="-28.7%" y="-42.4%"><feMorphology in="SourceAlpha" operator="dilate" radius="0.125" result="shadowSpreadOuter1"/><feOffset dx="2" dy="2" in="shadowSpreadOuter1" result="shadowOffsetOuter1"/><feGaussianBlur in="shadowOffsetOuter1" result="shadowBlurOuter1" stdDeviation="2"/><feComposite in="shadowBlurOuter1" in2="SourceAlpha" operator="out" result="shadowBlurOuter1"/><feColorMatrix in="shadowBlurOuter1" result="shadowMatrixOuter1" type="matrix" values="0 0 0 0 0.780392157   0 0 0 0 0.780392157   0 0 0 0 0.8  0 0 0 1 0"/><feMorphology in="SourceAlpha" operator="dilate" radius="0.125" result="shadowSpreadOuter2"/><feOffset dx="-2" dy="-2" in="shadowSpreadOuter2" result="shadowOffsetOuter2"/><feGaussianBlur in="shadowOffsetOuter2" result="shadowBlurOuter2" stdDeviation="2"/><feComposite in="shadowBlurOuter2" in2="SourceAlpha" operator="out" result="shadowBlurOuter2"/><feColorMatrix in="shadowBlurOuter2" result="shadowMatrixOuter2" type="matrix" values="0 0 0 0 1   0 0 0 0 1   0 0 0 0 1  0 0 0 1 0"/><feMerge><feMergeNode in="shadowMatrixOuter1"/><feMergeNode in="shadowMatrixOuter2"/></feMerge></filter><filter id="i" height="175.6%" width="151.1%" x="-25.6%" y="-37.8%"><feGaussianBlur in="SourceAlpha" result="shadowBlurInner1" stdDeviation="1"/><feOffset dx="0" dy="2" in="shadowBlurInner1" result="shadowOffsetInner1"/><feComposite in="shadowOffsetInner1" in2="SourceAlpha" k2="-1" k3="1" operator="arithmetic" result="shadowInnerInner1"/><feColorMatrix in="shadowInnerInner1" type="matrix" values="0 0 0 0 0   0 0 0 0 0   0 0 0 0 0  0 0 0 0.16 0"/></filter></defs><g fill="none" fill-rule="nonzero"><g><use fill="#000" filter="url(#d)" xlink:href="#c"/><use fill="#000" xlink:href="#c"/><use fill="url(#b)" xlink:href="#c"/><use fill="#000" filter="url(#e)" xlink:href="#c"/><use stroke="#f2f2f7" stroke-width=".25" xlink:href="#c"/></g><g><use fill="#000" filter="url(#h)" xlink:href="#g"/><use fill="#000" xlink:href="#g"/><use fill="url(#f)" xlink:href="#g"/><use fill="#000" filter="url(#i)" xlink:href="#g"/><use stroke="#f2f2f7" stroke-width=".25" xlink:href="#g"/></g></g></svg>